<?xml version="1.0" encoding="utf-8"?>
<!-- Generator: Adobe Illustrator 21.1.0, SVG Export Plug-In . SVG Version: 6.00 Build 0)  -->
<svg version="1.1" id="Слой_1" xmlns="http://www.w3.org/2000/svg" xmlns:xlink="http://www.w3.org/1999/xlink" x="0px" y="0px"
	 viewBox="0 0 970.3 600.3" style="enable-background:new 0 0 970.3 600.3;" xml:space="preserve">
<style type="text/css">
	.st0{fill:#FFFFFF;}
	.st1{fill:#FFC82C;}
	.st2{fill:none;stroke:#FFC82C;stroke-width:0.25;stroke-miterlimit:10;}
	.st3{fill:#FFC82C;stroke:#FFC82C;stroke-width:0.25;stroke-miterlimit:10;}
	.st4{fill:#2C6B96;stroke:#2C6B96;stroke-width:0.25;stroke-miterlimit:10;}
	.st5{fill:#FCC12D;}
</style>
<g>
	<rect x="0.2" y="0.2" class="st0" width="969.8" height="599.8"/>
	<path d="M969.9,0.4v599.5H0.4V0.4H969.9 M970.1,0.1H0.1v600h970V0.1L970.1,0.1z"/>
</g>
<g>
	<g id="XMLID_1_">
		<g>
			<path class="st1" d="M970.1,0.1v115H0.1V0.1H970.1z M970,115V0.2H0.2V115L970,115L970,115z"/>
			<path class="st1" d="M970,0.2V115H0.2V0.2H970z M969.9,114.9V0.4H0.4v114.5H969.9z"/>
			<rect x="0.4" y="0.4" class="st1" width="969.5" height="114.5"/>
		</g>
		<g>
			<rect x="0.2" y="0.2" class="st2" width="969.8" height="114.8"/>
			<rect x="0.4" y="0.4" class="st2" width="969.5" height="114.5"/>
			<rect x="0.1" y="0.1" class="st2" width="970" height="115"/>
		</g>
	</g>
</g>
<g>
	<rect x="0.2" y="485.2" class="st3" width="969.8" height="114.8"/>
	<path class="st3" d="M969.9,485.4v114.5H0.4V485.4H969.9 M970.1,485.1H0.1v115h970V485.1L970.1,485.1z"/>
</g>
<g>
	<rect x="0.2" y="114.2" class="st4" width="969.8" height="371.8"/>
	<path class="st4" d="M969.9,114.4v371.5H0.4V114.4H969.9 M970.1,114.1H0.1v372h970V114.1L970.1,114.1z"/>
</g>
<g>
	<path class="st5" d="M191,270.8c1.2,0,2.8,0,4.8,0.1s3.3,0.1,4,0.1c2.1,0,3.8-0.2,5-0.7s2.1-1.5,2.8-3c0.6-1.5,1-3.6,1-6.3v-62
		c0-4-0.7-6.7-2-8s-3.6-2-6.7-2c-0.7,0-2,0-4,0.1s-3.6,0.1-4.8,0.1v-12h62c9.3,0,17.6,1.1,24.7,3.2c7.2,2.1,13.3,5.4,18.4,9.7
		c5.1,4.4,8.9,9.9,11.6,16.5c2.6,6.6,4,14.4,4,23.3s-1.3,16.7-4,23.3c-2.7,6.6-6.5,12.1-11.5,16.4s-11.2,7.5-18.5,9.7
		s-15.6,3.3-24.6,3.3h-62v-11.8H191z M242.2,270.8c6.4,0,11.8-0.3,16.2-0.8c4.4-0.6,8.5-1.8,12.2-3.8s6.8-5.1,9.3-9.2
		s4.3-9.7,5.3-16.6c0.4-3.9,0.6-7.1,0.6-9.7c0-7.5-1-14.3-2.9-20.6c-2-6.2-5.3-11.1-10.1-14.5c-5.9-4.3-15.5-6.4-28.8-6.4
		c-2.9,0-5.2,0-6.9,0s-3.6,0.1-5.7,0.1v81.4h10.8V270.8z"/>
	<path class="st5" d="M319.8,270.7c1.2,0,2.8,0,4.7,0.1s3.2,0.1,4,0.1c3.1,0,5.2-0.7,6.5-2s1.9-4,1.9-8V199c0-4-0.7-6.6-2-8
		c-1.3-1.3-3.5-2-6.5-2c-0.8,0-2.1,0-4,0.1s-3.4,0.1-4.6,0.1v-12h107.7v42.1h-12.4c-0.2-6.2-0.7-11-1.5-14.6s-2.1-6.5-4-8.9
		c-1.9-2.3-4.8-4-8.5-5.1s-8.8-1.6-15.1-1.6h-26.1v32.4c5.6,0,9.7-0.2,12.4-0.5s4.7-1,6.1-2.2c1.4-1.1,2.4-2.9,3-5.3
		s1.3-6.3,1.9-11.5h12.4v53.1h-12.4c-0.3-5.5-0.7-9.6-1.3-12.4c-0.6-2.7-1.6-4.7-3.1-6.1c-1.5-1.3-3.6-2.2-6.3-2.6s-7-0.6-12.6-0.6
		v37.1h28.4c5.7,0,10.3-0.8,13.8-2.3c3.5-1.6,6-3.7,7.7-6.4c1.6-2.7,2.8-5.8,3.5-9.4c0.7-3.5,1.3-8.2,1.8-14.1h12.4v44.2H319.8
		V270.7z"/>
	<path class="st5" d="M494.9,177.3v12c-1.4,0-3.2,0-5.4-0.1s-3.6-0.1-4.4-0.1c-3.2,0-5.4,0.7-6.7,2s-1.9,4-1.9,8v71.7h20.3
		c6.1,0,11.2-0.4,15.2-1.3c4.1-0.9,7.2-3.1,9.2-6.6c3.1-5.7,4.7-14.3,4.7-25.7h12.4v45.6H436.5v-11.9c1.2,0,2.8,0,4.7,0.1
		s3.2,0.1,4,0.1c3.1,0,5.2-0.7,6.5-2s1.9-4,1.9-8v-62c0-4-0.7-6.6-2-8c-1.3-1.3-3.5-2-6.5-2c-0.8,0-2.1,0-4,0.1s-3.4,0.1-4.6,0.1
		v-12L494.9,177.3L494.9,177.3z"/>
	<path class="st5" d="M566.7,192.8c-3.8,2.5-6.4,6-7.7,10.5s-2.2,10.5-2.6,18h-12.3v-44h102.6v44h-12.4c-0.4-7.6-1.3-13.6-2.7-18.1
		c-1.4-4.4-4-7.9-7.9-10.4s-9.6-3.8-17.1-4v72.1c0.1,1.6,0.3,3.3,0.6,5.1c0.2,1.8,1.2,3.1,2.8,3.8c1.6,0.7,4.3,1.1,8,1.1
		c1.3,0,3,0,5.2-0.1s3.6-0.1,4.3-0.1v11.9h-63.7v-11.9c1.1,0,2.7,0,4.7,0.1s3.4,0.1,4.3,0.1c2.4,0,4.4-0.3,5.9-0.8
		c1.6-0.5,2.8-1.5,3.6-3c0.9-1.4,1.3-3.6,1.3-6.3v-72.1C576.1,189,570.5,190.3,566.7,192.8z"/>
	<path class="st5" d="M653.7,270.7c3.7,0,6.6-0.2,8.7-0.5c2.1-0.4,3.9-1.3,5.4-2.8s2.8-3.8,3.8-6.9l30.8-83.2h23.2l32.3,83.2
		c1.3,3.3,2.6,5.7,3.7,7.1c1.2,1.4,2.6,2.3,4.2,2.6c1.7,0.3,4.5,0.5,8.5,0.5v12h-56v-12c5.2,0,9-0.1,11.3-0.2c2.3-0.2,4-0.5,5-1.1
		c1.1-0.6,1.6-1.5,1.6-2.7c0-1-0.3-2.3-0.9-3.9s-1.3-3.3-2.1-5.2c-0.8-1.8-2-4.7-3.6-8.5h-36.3c-0.8,2.3-1.7,4.8-2.8,7.7
		c-1.1,2.9-1.8,5.1-2.3,6.5c-0.4,1.4-0.7,2.6-0.7,3.5s0.3,1.7,0.9,2.2s1.6,0.9,2.9,1.2c1.3,0.2,2.9,0.4,4.8,0.4
		c1.8,0,4.7,0.1,8.6,0.1v12h-51.1L653.7,270.7L653.7,270.7z M710.9,200.4l-12.4,36.3h27.1L710.9,200.4z"/>
	<path class="st5" d="M119.6,410.7c3.7,0,6.6-0.2,8.7-0.5c2.1-0.4,3.9-1.3,5.4-2.8s2.8-3.8,3.8-6.9l30.8-83.2h23.2l32.3,83.2
		c1.3,3.3,2.6,5.7,3.7,7.1c1.2,1.4,2.6,2.3,4.2,2.6c1.7,0.3,4.5,0.5,8.5,0.5v12h-56v-12c5.2,0,9-0.1,11.3-0.2c2.3-0.2,4-0.5,5-1.1
		c1.1-0.6,1.6-1.5,1.6-2.7c0-1-0.3-2.3-0.9-3.9c-0.6-1.6-1.3-3.3-2.1-5.2c-0.8-1.8-2-4.7-3.6-8.5h-36.3c-0.8,2.3-1.7,4.8-2.8,7.7
		s-1.8,5.1-2.3,6.5c-0.4,1.4-0.7,2.6-0.7,3.5s0.3,1.7,0.9,2.2c0.6,0.5,1.6,0.9,2.9,1.2c1.3,0.2,2.9,0.4,4.8,0.4
		c1.8,0,4.7,0.1,8.6,0.1v12h-51.1L119.6,410.7L119.6,410.7z M176.7,340.4l-12.4,36.3h27.1L176.7,340.4z"/>
	<path class="st5" d="M335.7,414.4c-5,3.7-10.3,6.5-15.9,8.3c-5.6,1.8-11.2,2.7-16.9,2.7c-6.6,0-13.1-1.2-19.4-3.5
		c-6.3-2.4-12-5.7-17-10.1c-5.1-4.4-9.2-9.6-12.3-15.7c-3.2-6.1-5.1-12.8-5.8-20.1c-0.1-1.1-0.1-2.7-0.1-4.8
		c0-7.5,1.4-14.6,4.1-21.5c2.8-6.9,6.7-13,11.7-18.3c5.1-5.4,10.9-9.5,17.4-12.6c6.5-3,13.6-4.5,21.1-4.5c4,0,8,0.5,12,1.4
		c3.3,0.4,6.4,1.3,9.2,2.9c2.8,1.6,6.6,4,11.2,7.2l4.5-9.3H351v41.6h-12.4c-1.1-4.3-2.6-8.3-4.3-12c-1.7-3.6-3.9-6.9-6.6-9.8
		c-2.7-2.9-6-5.2-9.8-7c-3.5-1.4-7.5-2.1-11.9-2.1c-3.7,0-7.2,0.6-10.6,1.8c-3.4,1.2-6.3,2.9-8.9,5.2c-2.7,2.5-5.1,5.7-7,9.6
		c-2,3.9-3.4,8.2-4.4,12.8s-1.5,9.4-1.5,14.2c0,7.8,1.3,14.9,3.9,21.5c2.6,6.5,6.4,11.4,11.4,14.6c5.3,3.3,11.4,4.9,18.5,4.9
		c4.2,0,8.1-0.7,11.8-2.2c3.7-1.4,6.6-3.7,8.8-6.7s3.3-6.9,3.3-11.5c0-3.9-0.2-6.8-0.6-8.6c-0.4-1.8-1.1-3-2.2-3.6
		c-1.1-0.6-2.9-0.9-5.3-0.9c-1.4,0-3.1,0.1-5.3,0.2c-2.2,0.1-4.2,0.2-6,0.2v-12H370v12c-1.3,0-2.5-0.1-3.6-0.1s-2.4,0-3.9,0
		c-2.1,0-3.8,0.2-5,0.7s-2.1,1.4-2.8,2.8c-0.6,1.4-1,3.5-1,6.3v34.7h-12L335.7,414.4z"/>
	<path class="st5" d="M374,410.7c1.2,0,2.8,0,4.7,0.1s3.2,0.1,4,0.1c3.1,0,5.2-0.7,6.5-2s1.9-4,1.9-8V339c0-4-0.7-6.6-2-8
		c-1.3-1.3-3.5-2-6.5-2c-0.8,0-2.1,0-4,0.1s-3.4,0.1-4.6,0.1v-12h107.7v42.1h-12.4c-0.2-6.2-0.7-11-1.5-14.6s-2.1-6.5-4-8.9
		c-1.9-2.3-4.8-4-8.5-5.1s-8.8-1.6-15.1-1.6h-26.1v32.4c5.6,0,9.7-0.2,12.4-0.5s4.7-1,6.1-2.2c1.4-1.1,2.4-2.9,3-5.3
		c0.6-2.4,1.3-6.3,1.9-11.5h12.4v53.1h-12.4c-0.3-5.5-0.7-9.6-1.3-12.4c-0.6-2.7-1.6-4.7-3.1-6.1c-1.5-1.3-3.6-2.2-6.3-2.6
		s-7-0.6-12.6-0.6v37.1h28.4c5.7,0,10.3-0.8,13.8-2.3c3.5-1.6,6-3.7,7.7-6.4c1.6-2.7,2.8-5.8,3.5-9.4c0.7-3.5,1.3-8.2,1.8-14.1h12.4
		v44.2H374V410.7z"/>
	<path class="st5" d="M580.5,422.7l-54.4-85.9V401c0,2.9,0.3,5,0.9,6.4c0.6,1.4,1.5,2.4,2.7,2.9s2.9,0.7,5,0.7c0.8,0,2.2,0,4.4-0.1
		s3.9-0.1,5.3-0.1v11.9h-54.2v-11.9c1.5,0,3.2,0,5.4,0.1c2.1,0.1,3.6,0.1,4.3,0.1c3.2,0,5.4-0.7,6.7-2s1.9-4,1.9-8v-62
		c0-4.1-0.6-6.8-1.9-8c-1.3-1.3-3.5-1.9-6.6-1.9c-0.8,0-2.2,0-4.2,0.1c-2.1,0.1-3.8,0.1-5.2,0.1v-12h47l48.7,76.6V339
		c0-4.1-0.7-6.8-2.1-8c-1.4-1.3-3.8-1.9-7.1-1.9c-0.8,0-2.3,0-4.4,0.1s-3.8,0.1-5.2,0.1v-12h51.9v12c-1.3,0-2.5-0.1-3.6-0.1
		s-2.4,0-3.9,0c-2,0-3.6,0.2-4.8,0.7c-1.2,0.5-2.1,1.4-2.7,2.9s-0.9,3.6-0.9,6.2v83.7H580.5z"/>
	<path class="st5" d="M727.4,382c-0.7,7.7-2.5,14.7-5.6,21s-7.4,11.4-13.2,15.4c-5.7,4-12.5,6.3-20.4,6.8c-1.5,0.2-3.6,0.3-6.6,0.3
		c-10.5,0-20-2.4-28.7-7.3c-8.6-4.8-15.3-11.7-20-20.7c-4.5-8.4-6.8-17.2-6.8-26.5c0-7.3,1.4-14.4,4.1-21.2
		c2.8-6.8,6.7-12.9,11.8-18.3c5.1-5.4,11.1-9.6,18-12.7c6.9-3.1,14.4-4.6,22.3-4.6c2,0,3.5,0,4.4,0.1c4.7,0.6,8.9,1.9,12.8,3.7
		s8.2,4.3,13,7.5l3.3-9.7h11.4v43.3h-12.5c-0.5-4.2-1.5-8.1-3-11.9c-1.5-3.8-3.6-7.2-6.2-10.2c-2.7-3.1-5.9-5.5-9.7-7.2
		c-3.8-1.7-8.2-2.6-13.2-2.6c-5.6,0.2-10.4,1.6-14.4,4.2c-4.1,2.6-7.4,6-9.8,10.3c-2.5,4.3-4.3,8.8-5.4,13.6s-1.6,9.8-1.6,14.9
		c0,7.3,1,14.1,3,20.2c2,6.2,5.4,11.2,10.2,15s11.1,5.9,19.1,6c6.4,0,11.6-1.3,15.6-3.8s7.2-5.9,9.3-10.2c2.2-4.3,3.8-9.4,5-15.3
		L727.4,382L727.4,382z"/>
	<path class="st5" d="M735.4,410.7c1.2,0,2.8,0,4.7,0.1c1.9,0.1,3.2,0.1,4,0.1c3.1,0,5.2-0.7,6.5-2s1.9-4,1.9-8V339c0-4-0.7-6.6-2-8
		c-1.3-1.3-3.5-2-6.5-2c-0.8,0-2.1,0-4,0.1s-3.4,0.1-4.6,0.1v-12h107.7v42.1h-12.4c-0.2-6.2-0.7-11-1.5-14.6s-2.1-6.5-4-8.9
		c-1.9-2.3-4.8-4-8.5-5.1s-8.8-1.6-15.1-1.6h-26.1v32.4c5.6,0,9.7-0.2,12.4-0.5c2.7-0.3,4.7-1,6.1-2.2c1.4-1.1,2.4-2.9,3-5.3
		c0.6-2.4,1.3-6.3,1.9-11.5h12.4v53.1h-12.4c-0.3-5.5-0.7-9.6-1.3-12.4c-0.6-2.7-1.6-4.7-3.1-6.1c-1.5-1.3-3.6-2.2-6.3-2.6
		s-7-0.6-12.6-0.6v37.1H804c5.7,0,10.3-0.8,13.8-2.3c3.5-1.6,6-3.7,7.7-6.4c1.6-2.7,2.8-5.8,3.5-9.4c0.7-3.5,1.3-8.2,1.8-14.1h12.4
		v44.2H735.5v-11.8H735.4z"/>
</g>
</svg>
